<svg id="Layer_1" data-name="Layer 1" xmlns="http://www.w3.org/2000/svg" viewBox="0 0 360 360"><defs><style>.cls-1{fill:#231f20;}.cls-2{fill:#fff;}</style></defs><title>FatCat</title><path class="cls-1" d="M266.19,167.74c-8.68-8.73-13.59-14-13.59-21.49,0-23.91,22.6-34.62,23.52-35a8.82,8.82,0,1,0-7.23-16.09C267.5,95.75,235,110.8,235,146.25c0,15.1,9.51,24.67,18.71,33.92,11.28,11.34,22.93,23.07,22.93,47.94,0,25.21-11,43.08-24.4,55.49q.89-2.46,1.82-5.11l.4-1.11c3.56-10.06,8.63-47.13-14-84.25-4.08-6.69-6.59-12.73-8.94-27.19-1.72-10.95-2.76-21.56-3.76-31.83-.3-3.07-.6-6.13-.92-9.19-4.3-41.75-9.45-84.51-15-85.11C206.06,39.19,192.44,54,191,55.63a82.44,82.44,0,0,0-46.66,0C142.9,54,129.29,39.18,123.52,39.81c-1.74.19-4.52,3.67-8.64,31.59-2.7,18.29-5.06,41.21-6.33,53.52-.32,3.06-.62,6.12-.92,9.19-1,10.26-2,20.88-3.76,31.83-2.35,14.46-4.86,20.5-8.94,27.19-22.65,37.11-17.58,74.19-14,84.25l.4,1.11c5.14,14.53,8.53,24.13,20.06,36.35a20,20,0,0,0,14.51,6.26H219.46a19.18,19.18,0,0,0,2.73-.2,6.62,6.62,0,0,0,.77,0,8.88,8.88,0,0,0,3.37-.67c18.92-7.83,35-19.12,46.41-32.66,14.27-16.87,21.51-36.89,21.51-59.5C294.25,196,278,179.65,266.19,167.74Z"/><circle class="cls-2" cx="141.29" cy="91.2" r="4.21"/><circle class="cls-2" cx="190.14" cy="91.2" r="4.21"/><path class="cls-2" d="M167.67,268c1,0,1.65-.91,2.15-3.35,2-9.59,20.18-29.75,20.18-29.75a19.29,19.29,0,0,0,2.38-5.26c2-7-.35-13.94-4.89-16.49-9.4-5.41-12.53-20.21-6.5-34,4.28-9.76,10.4-16.42,20.31-18.74,10.65-2.68,16.87-9.64,16.87-19.12a19.07,19.07,0,0,0-10.08-16.75s-4.47-2.44-5.09-2.75a27.6,27.6,0,0,1-3.27-2,39.29,39.29,0,0,1-9-8.68h0c-4.49-6.18-14.77-8.42-23.06-8.42s-18.57,2.24-23.06,8.42h0a39.29,39.29,0,0,1-9,8.68,27.6,27.6,0,0,1-3.27,2c-.62.31-3.82,2.06-5.09,2.75a19.08,19.08,0,0,0-10.08,16.75c0,9.48,6.22,16.44,16.87,19.12,9.91,2.32,16,9,20.31,18.74,6,13.74,2.9,28.54-6.5,34-4.54,2.55-6.89,9.53-4.89,16.49a19.29,19.29,0,0,0,2.38,5.26s18.19,20.16,20.18,29.75C166,267.09,166.67,268,167.67,268Z"/><path class="cls-2" d="M145.15,312.92h0a11.68,11.68,0,0,0-10,5.68,2.85,2.85,0,0,0,2.46,4.29h15a2.85,2.85,0,0,0,2.46-4.29A11.66,11.66,0,0,0,145.15,312.92Z"/><path class="cls-2" d="M189.51,312.92h0a11.68,11.68,0,0,0-10,5.68,2.85,2.85,0,0,0,2.46,4.29H197a2.85,2.85,0,0,0,2.46-4.29A11.66,11.66,0,0,0,189.51,312.92Z"/><path class="cls-1" d="M167.67,138.17c-9.38,0-18.08-2-23.89-5.49a2.7,2.7,0,0,1,2.78-4.62c4.92,3,12.81,4.72,21.11,4.72,9.15,0,17.73-2.14,22.41-5.59a2.7,2.7,0,0,1,3.2,4.34C187.64,135.69,178.06,138.17,167.67,138.17Z"/><path class="cls-1" d="M174.63,116.57c-1.86-.77-4.74-2.34-5.77-3.55a6.28,6.28,0,0,0,3.23-3.1,1.75,1.75,0,0,0-1.24-2.6h-7.63a1.75,1.75,0,0,0-1.25,2.6,6.3,6.3,0,0,0,3.24,3.1c-1,1.21-3.92,2.78-5.78,3.55a1.72,1.72,0,0,0,1.32,3.17A24.64,24.64,0,0,0,167,116a24.81,24.81,0,0,0,6.28,3.73,1.72,1.72,0,0,0,1.32-3.17Z"/></svg>