<svg id="Layer_1" data-name="Layer 1" xmlns="http://www.w3.org/2000/svg" viewBox="0 0 360 360"><defs><style>.cls-1{fill:#fff;}</style></defs><title>TheB-Mark</title><path class="cls-1" d="M180,302.74A122.74,122.74,0,1,1,302.74,180,122.88,122.88,0,0,1,180,302.74Zm0-235.08A112.34,112.34,0,1,0,292.34,180,112.47,112.47,0,0,0,180,67.66Z"/><path class="cls-1" d="M204.51,152.34a5.46,5.46,0,0,0,0,10.91c16.08,0,27.75,12.54,27.75,29.81v4A32.93,32.93,0,0,1,199.37,230H150.43a3.35,3.35,0,0,1-3.4-2.89V179.59a16.73,16.73,0,0,1,16.71-16.71h6.54a27.62,27.62,0,1,0,0-55.24H146.86a10.75,10.75,0,0,0-10.74,10.74V134.7a5.46,5.46,0,0,0,10.91,0V121.53a3.26,3.26,0,0,1,2.88-3h20.37a16.71,16.71,0,1,1,0,33.42h-6.54a27.65,27.65,0,0,0-27.62,27.62v52.65a8.65,8.65,0,0,0,8.64,8.64h54.61a43.85,43.85,0,0,0,43.8-43.8v-4C243.17,169.85,226.55,152.34,204.51,152.34Z"/></svg>