<svg id="Layer_1" data-name="Layer 1" xmlns="http://www.w3.org/2000/svg" viewBox="0 0 360 360"><defs><style>.cls-1{fill:#fff;}</style></defs><title>TheB-Type</title><path class="cls-1" d="M27.9,194.26V165.7h15c5.64,0,8.71,3.25,8.71,7.28a6.56,6.56,0,0,1-5.32,6.55,7.09,7.09,0,0,1,5.91,7c0,4.45-3.11,7.75-8.89,7.75Zm18.24-20.47c0-2.1-1.56-3.68-4.26-3.68H33.26v7.36h8.62C44.58,177.47,46.14,176,46.14,173.79Zm.59,12.08c0-2.14-1.6-4-4.62-4H33.26v8h8.85C45,189.85,46.73,188.35,46.73,185.87Z"/><path class="cls-1" d="M80.59,194.26,73.86,183.6H68.5v10.66H63.14V165.7H76.56c6,0,10,3.64,10,9A8.22,8.22,0,0,1,79.31,183l7.52,11.22Zm.51-19.65c0-2.75-2.2-4.5-5.23-4.5H68.5v9.08h7.37C78.9,179.19,81.1,177.39,81.1,174.61Z"/><path class="cls-1" d="M96.13,180c0-8.52,6.46-14.77,15.62-14.77s15.63,6.25,15.63,14.77-6.51,14.77-15.63,14.77S96.13,188.52,96.13,180Zm25.75,0c0-5.91-4-10.32-10.13-10.32s-10.13,4.41-10.13,10.32,3.95,10.32,10.13,10.32S121.88,185.87,121.88,180Z"/><path class="cls-1" d="M157.85,194.26l-2.25-5.52h-14l-2.25,5.52h-6.09l12-28.56h6.69l12,28.56Zm-9.26-23.55-5.5,13.61h11Z"/><path class="cls-1" d="M172.74,194.26V165.7H184.1c9.58,0,16,5.91,16,14.26s-6.41,14.3-15.94,14.3ZM194.59,180c0-5.48-3.66-9.85-10.44-9.85H178.1v19.74h6C190.75,189.85,194.59,185.4,194.59,180Z"/><path class="cls-1" d="M229.05,194.26l-10.22-12.08-2.7,3v9.12h-5.36V165.7h5.36v13.57l12-13.57h6.64l-12.42,13.44,13.38,15.12Z"/><path class="cls-1" d="M266.16,194.26l-2.24-5.52h-14l-2.25,5.52h-6.09l12-28.56h6.69l12,28.56Zm-9.25-23.55-5.5,13.61h11Z"/><path class="cls-1" d="M285.36,194.26V170.11h-9.25V165.7H300v4.41h-9.26v24.15Z"/><path class="cls-1" d="M307.81,190.23l3-3.89a13.52,13.52,0,0,0,9.67,4c4.4,0,6.09-2,6.09-3.94,0-6-17.78-2.27-17.78-12.76,0-4.75,4.4-8.39,11.14-8.39a16.45,16.45,0,0,1,11.41,4l-3,3.73a12.94,12.94,0,0,0-8.89-3.3c-3.11,0-5.13,1.46-5.13,3.56,0,5.35,17.78,2,17.78,12.67,0,4.75-3.62,8.86-11.82,8.86C314.64,194.77,310.56,192.89,307.81,190.23Z"/></svg>